<svg xmlns="http://www.w3.org/2000/svg" style="background:#B0B0B0" width="80" height="80" viewBox="0 0 32.00 32.00">
  <path style="stroke-width:2;stroke:#C0C0C0;fill:none" d="         M2,2.5 l2,3 l2,5 l1,1 l3,0 l1,-1 l2,-3 l1,-3 l2,-3 l1,-1 l1,0 l1,1 l2,3 l2,6 l2,2     " />
  <path style="stroke-width:2;stroke:#C0C0C0;fill:none" d="         M2,5 l2,3 l2,5 l1,1 l3,0 l1,-1 l2,-3 l1,-3 l2,-3 l1,-1 l1,0 l1,1 l2,3 l2,6 l2,2     " />
  <path style="stroke-width:2;stroke:#C0C0C0;fill:none" d="         M2,7.5 l2,3 l2,5 l1,1 l3,0 l1,-1 l2,-3 l1,-3 l2,-3 l1,-1 l1,0 l1,1 l2,3 l2,6 l2,2     " />
  <path style="stroke-width:1;stroke:#C0C0C0;fill:none" d="             M6,24  a12,12,0  0 0 20,0  M6,24  a12,12,0  0 1 20,0             M11,24  a5,5,0 1 1 0,0.0001         " />
  <path style="stroke-width:2;stroke:#C0C0C0;fill:none" d="             M6,30 l20,-12         " />
  <path style="stroke-width:1;stroke:#C0C0C0;fill:#C0C0C0" d="             M14,24  a2,2,0 1 1 0,0.0001            " />
</svg>