<svg xmlns="http://www.w3.org/2000/svg" style="background:#B0B0B0" width="80" height="80" viewBox="0 0 24.00 24.00">
  <path style="stroke-width:1;stroke:#FF6000;fill:none" d="             M4,8 l0,1 l1,0 l0,-1 l-1.5,0             M7,8 l0,1 l1,0 l0,-1 l-1.5,0             M10,8 l0,1 l1,0 l0,-1 l-1.5,0             M13,8 l0,1 l1,0 l0,-1 l-1.5,0             M16,8 l0,1 l1,0 l0,-1 l-1.5,0             M19,8 l0,1 l1,0 l0,-1 l-1.5,0              M4,12 l0,1 l1,0 l0,-1 l-1.5,0             M7,12 l0,1 l1,0 l0,-1 l-1.5,0             M10,12 l0,1 l1,0 l0,-1 l-1.5,0             M13,12 l0,1 l1,0 l0,-1 l-1.5,0             M16,12 l0,1 l1,0 l0,-1 l-1.5,0             M19,12 l0,1 l1,0 l0,-1 l-1.5,0              M7.5,17 l0,1 l9,0 l0,-1 l-9.5,0         " />
</svg>