<svg xmlns="http://www.w3.org/2000/svg" style="background:#B0B0B0" width="80" height="80" viewBox="0 0 32.00 32.00">
  <path style="stroke-width:2;stroke:#FFFFFF;fill:none" d="             M5,4 a3,3,0 1 0 0.001,0             M8,7 l14,0             M22,7 l-3,-3, l3,3, l-3,3             M27,4 a3,3,0 1 0 0.001,0               M5,22 a3,3,0 1 0 0.001,0             M10,25 l14,0             M10,25 l3,-3, l-3,3, l3,3             M27,22 a3,3,0 1 0 0.001,0          " />
  <path style="stroke-width:2;stroke:#FFFFFF;fill:none" d="             M15,12  l0,7 m-3,-3 l3,3 l3,-3          " />
</svg>