<svg xmlns="http://www.w3.org/2000/svg" style="background:#B0B0B0" width="80" height="80" viewBox="0 0 48.00 48.00">
  <path style="stroke-width:2;stroke:#00AA00;fill:#CCDDCC" d="M22,2 m0,0 a20,20 0 6,0 0.001 0 " />
  <path style="stroke-width:1;stroke:#00AA00;fill:#00AA00;fill-opacity:0.00" d="M17,16.3 l0,-7 l2,3 l2,-3 l0,7 M27,8.5 l-4,0 l0,7.25 l4,0 l0,-3.5 l-2,0" />
  <path style="stroke-width:1;stroke:#00AA00;fill:#00AA00;fill-opacity:0.00" d="             M13,30.5 l0,-7 l2,3 l2,-3 l0,7             M20,30.5 l0,-7 l2,-1.5 l2,1.5 l0,7 l0,-4 l-4,0             M27,30.5 l0,-8.5 l3,0 l1,1 l0,2 l-1,1 l-3,0" />
</svg>