<svg xmlns="http://www.w3.org/2000/svg" style="background:#B0B0B0" width="80" height="80" viewBox="0 0 24.00 24.00">
  <path style="stroke-width:2;stroke:#FFFFFF;fill:none" d="M2,2 6,17 L11,2 L16,17 L20,2  " />
  <path style="stroke-width:2;stroke:#FFFFFF;fill:#FFFFFF" d="M6,16 m0,0 a2,2,0 1 0 0.001,0 " />
  <path style="stroke-width:2;stroke:#FFFFFF;fill:#FFFFFF" d="M16,16 m0,0 a2,2,0 1 0 0.001,0 " />
  <path style="stroke-width:2;stroke:#FFFFFF;fill:#FFFFFF" d="M3,1 m0,0 a2,2,0 1 0 0.001,0 " />
  <path style="stroke-width:2;stroke:#FFFFFF;fill:#FFFFFF" d="M11,1 m0,0 a2,2,0 1 0 0.001,0 " />
  <path style="stroke-width:2;stroke:#FFFFFF;fill:#FFFFFF" d="M20,1 m0,0 a2,2,0 1 0 0.001,0" />
</svg>