<svg xmlns="http://www.w3.org/2000/svg" style="background:#B0B0B0" width="80" height="80" viewBox="0 0 32.00 32.00">
  <path style="stroke-width:1.2;stroke:#FFFFFF;fill:#FFFFFF" d="             M25.3,10.2 l-3,17.6   " />
  <path style="stroke-width:.8;stroke:#FFFFFF;fill:#FFFFFF" d="             M25.1,10.2 a.2,.2,0 1 1 0,0.0001             M22.1,27.8 a.2,.2,0 1 1 0,0.0001   " />
  <path style="stroke-width:.7;stroke:#00FF00;fill:#00FF00" d="             M25.3,10.2 l-3,17.6   " />
  <path style="stroke-width:.3;stroke:#00FF00;fill:#00FF00" d="             M25.1,10.2 a.2,.2,0 1 1 0,0.0001             M22.1,27.8 a.2,.2,0 1 1 0,0.0001    " />
  <path style="stroke-width:1.5;stroke:#FFFFFF;fill:#FFFFFF" d="             M24.3,13.2 a.5,.5,0 1 1 0,0.0001             M19.44,27.2 a.5,.5,0 1 1 0,0.0001             M11.12,27.2 a.5,.5,0 1 1 0,0.0001              M12.5,9.2                 a.5,.5,0 0 1 .5,.5                 l-1,7                 a.5,.5,0 0 1 -.5,.5                 l-1.4,-.2                 a.5,.5,0 0 1 -.5,-.5                 l1,-7                 a.5,.5,0 0 1 .5,-.5                 l1.4,.2    " />
  <path style="stroke-width:2.5;stroke:#FFFFFF;fill:none" d="             M14.37,16.9 l-2.8,10.5    " />
  <path style="stroke-width:2;stroke:#00FF00;fill:none" d="             M14.37,16.9 l-2.8,10.5   " />
  <path style="stroke-width:2.5;stroke:#FFFFFF;fill:none" d="             M15,5.5 a1.5,1.5,0 1 1 0,0.0001             M15,10.5 a1,1,0 1 1 0,0.0001             M14,17.5 a1,1,0 1 1 0,0.0001             M15.05,10.1 l-1,7             M17.00,10.38 l-1,7              M16.5,9.6 l3,3  a2,2,0 0 0 1.3,.6 l4,0             M14.68,18.5 l4,3 a2,2,0 0 1 .6,1.3 l.67,4.5    " />
  <path style="stroke-width:2;stroke:#00FF00;fill:#00FF00" d="             M15,5.5 a1.5,1.5,0 1 1 0,0.0001             M15,10.5 a1,1,0 1 1 0,0.0001             M14,17.5 a1,1,0 1 1 0,0.0001             M15.05,10.1 l-1,7             M17.00,10.38 l-1,7      " />
  <path style="stroke-width:2;stroke:#00FF00;fill:none" d="               M16.5,9.6 l3,3  a2,2,0 0 0 1.3,.6 l4,0             M14.68,18.5 l4,3 a2,2,0 0 1 .6,1.3 l.67,4.5      " />
  <path style="stroke-width:1;stroke:#00FF00;fill:#00FF00" d="             M24.3,13.2 a.5,.5,0 1 1 0,0.0001             M19.44,27.2 a.5,.5,0 1 1 0,0.0001             M11.12,27.2 a.5,.5,0 1 1 0,0.0001              M12.5,9.2                 a.5,.5,0 0 1 .5,.5                 l-1,7                 a.5,.5,0 0 1 -.5,.5                 l-1.4,-.2                 a.5,.5,0 0 1 -.5,-.5                 l1,-7                 a.5,.5,0 0 1 .5,-.5                 l1.4,.2     " />
</svg>