<svg xmlns="http://www.w3.org/2000/svg" style="background:#B0B0B0" width="80" height="80" viewBox="0 0 32.00 32.00">
  <path style="stroke-width:2.5;stroke:#_BLACK;fill:none" d="             M2,22 a5,5,0 1 1 0,0.0001             M20,16 a5,5,0 1 1 0,0.0001             M6,22 l9,-3 l4,-8.5 l-0.2,-0.2 l-13,12             M25,16 l-10,-9 l1.5,-0.6             M15,19 l-6.5,-6 l-1.5,1 l4,-2.6    " />
  <path style="stroke-width:1.5;stroke:#_GREEN;fill:none" d="             M2,22 a5,5,0 1 1 0,0.0001             M20,16 a5,5,0 1 1 0,0.0001             M6,22 l9,-3 l4,-8.5 l-0.2,-0.2 l-13,12             M25,16 l-10,-9 l1.5,-0.6             M15,19 l-6.5,-6 l-1.5,1 l4,-2.6    " />
  <path style="stroke-width:1.5;stroke:#_BLACK;fill:none" d="             M4,31 l9,-3 l9-4 l9-3     " />
  <path style="stroke-width:1;stroke:#_WHITE;fill:none" d="             M4,31 l9,-3 l9-4 l9-3     " />
  <path style="stroke-width:2;stroke:#000000;fill:none" d="             M.5,10 l5,-1 l4,-2 l4,-4 l.7,1 l2,-3   " />
  <path style="stroke-width:3;stroke:#000000;fill:none" d="             M3,4 a1.5,1.5,0 1 1 0,0.0001   " />
  <path style="stroke-width:2;stroke:#000000;fill:none" d="             M16,1 l2,3 l.7,-1 l4,4 l4,2 l 5,1   " />
  <path style="stroke-width:3;stroke:#000000;fill:none" d="             M27,4 a1.5,1.5,0 1 1 0,0.0001   " />
</svg>