<svg xmlns="http://www.w3.org/2000/svg" style="background:#B0B0B0" width="80" height="80" viewBox="0 0 48.00 48.00">
  <path style="stroke-width:3;stroke:#000000;fill:#000000;fill-opacity:0.00" d="             M6,12 a6,6,0 1 1 11.6,0 l-5.83,12 l-5.83,-12.2             M11.9,8.5 m0,0 a2,2,0 1 0 0.001,0         " />
  <path style="stroke-width:2;stroke:#00FF00;fill:#000000;fill-opacity:0.00" d="             M6,12 a6,6,0 1 1 11.6,0 l-5.83,12 l-5.83,-12.2             M11.9,8.5 m0,0 a2,2,0 1 0 0.001,0          " />
  <path style="stroke-width:3;stroke:#000000;fill:#000000;fill-opacity:0.00" d="             M30,12 a6,6,0 1 1 11.6,0 l-5.83,12 l-5.83,-12.2             M35.9,8.5 m0,0 a2,2,0 1 0 0.001,0         " />
  <path style="stroke-width:2;stroke:#00FF00;fill:#000000;fill-opacity:0.00" d="             M30,12 a6,6,0 1 1 11.6,0 l-5.83,12 l-5.83,-12.2             M35.9,8.5 m0,0 a2,2,0 1 0 0.001,0          " />
  <path style="stroke-width:3;stroke:#000000;fill:#000000;fill-opacity:0.00" d="              M5,30 l36,0 l0,8 l-35,0 l0,-9             M11.5,30 l0,4.5             M15.6,30 l0,3.5             M19.6,30 l0,3.5             M23.7,30 l0,4.5             M27.8,30 l0,3.5             M31.8,30 l0,3.5             M35.9,30 l0,4.5         " />
  <path style="stroke-width:2;stroke:#00FF00;fill:#000000;fill-opacity:0.00" d="              M5,30 l36,0 l0,8 l-35,0 l0,-9             M11.5,30 l0,4             M15.6,30 l0,3             M19.6,30 l0,3             M23.7,30 l0,4             M27.8,30 l0,3             M31.8,30 l0,3             M35.9,30 l0,4         " />
</svg>