<svg xmlns="http://www.w3.org/2000/svg" style="background:#B0B0B0" width="80" height="80" viewBox="0 0 32.00 32.00">
  <path style="stroke-width:2.5;stroke:#_BLACK;fill:none" d="             M2,22 a5,5,0 1 1 0,0.0001             M20,22 a5,5,0 1 1 0,0.0001             M6,22 l9,0 l6.5,-6.5 l-0.2,-0.4 l-9,0 l-6,7             M25,22 l-4,-9 l2,-1             M15,22 l-3.5,-9 l-1.5,0 l4,0    " />
  <path style="stroke-width:1.5;stroke:#_GREEN;fill:none" d="             M2,22 a5,5,0 1 1 0,0.0001             M20,22 a5,5,0 1 1 0,0.0001             M6,22 l9,0 l6.5,-6.5 l-0.2,-0.4 l-9,0 l-6,7             M25,22 l-4,-9 l2,-1             M15,22 l-3.5,-9 l-1.5,0 l4,0    " />
</svg>