<svg xmlns="http://www.w3.org/2000/svg" style="background:#B0B0B0" width="80" height="80" viewBox="0 0 72.00 72.00">
  <path style="stroke-width:2;stroke:#FFFFFF;fill:none" d=" M5,5 L5,19 L19,19 L19,5 L4,5  " />
  <path style="stroke-width:2;stroke:#FFFFFF;fill:none" d=" M5,29 L5,43 L19,43 L19,29 L4,29  " />
  <path style="stroke-width:2;stroke:#FFFFFF;fill:none" d=" M5,53 L5,67 L19,67 L19,53 L4,53  " />
  <path style="stroke-width:2;stroke:#FFFFFF;fill:none" d=" M26,8 L56,8 M26,14 L48,14 " />
  <path style="stroke-width:2;stroke:#FFFFFF;fill:none" d=" M26,32 L56,32 M26,38 L48,38 " />
  <path style="stroke-width:2;stroke:#FFFFFF;fill:none" d=" M26,56 L56,56 M26,62 L48,62 " />
  <path style="stroke-width:2;stroke:#FFFFFF;fill:none" d="M8,11 L12,15 L22,5   " />
  <path style="stroke-width:2;stroke:#FFFFFF;fill:none" d="M8,35 L12,39 L22,29   " />
  <path style="stroke-width:2;stroke:#FFFFFF;fill:none" d="M8,59 L12,63 L22,53   " />
</svg>