<svg xmlns="http://www.w3.org/2000/svg" style="background:#B0B0B0" width="80" height="80" viewBox="0 0 72.00 72.00">
  <path style="stroke-width:2;stroke:#CCCCCC;fill:none" d="             M5,5 L5,19 L19,19 L19,5 L4,5             M5,29 L5,43 L19,43 L19,29 L4,29             M5,53 L5,67 L19,67 L19,53 L4,53              M26,8 L56,8 M26,14 L48,14             M26,32 L56,32 M26,38 L48,38             M26,56 L56,56 M26,62 L48,62              M8,11 L12,15 L22,5             M8,35 L12,39 L22,29             M8,59 L12,63 L22,53         " />
</svg>