<svg xmlns="http://www.w3.org/2000/svg" style="background:#B0B0B0" width="80" height="80" viewBox="0 0 32.00 32.00">
  <path style="stroke-width:1;stroke:#FFFFFF;fill:none" d="             M26,22 a3,3,0 1 0 0,0.001  " />
  <path style="stroke-width:1;stroke:#FFFFFF;fill:none" d="             M23,14   l1.0,0.0    a0.5,0.5,0 0 1   0.5,0.5  l0.0,2.0     a4,4,0 0 1  1.4,0.6   l1.4,-1.4    a0.5,0.5,0 0 1 0.6,0.0                     l1.4,1.4    a0.5,0.5,0 0 1   0.0,0.6  l-1.4,1.4    a4,4,0 0 1  0.6,1.4   l2.0,0.0     a0.5,0.5,0 0 1 0.5,0.5  l0.0,1.0              M31,22  l0.0,1.0    a0.5,0.5,0 0 1  -0.5,0.5  l-2.0, 0.0   a4,4,0 0 1 -0.6,1.4   l1.4,1.4     a0.5,0.5,0 0 1  0.0,0.6                     l-1.4,1.4   a0.5,0.5,0 0 1  -0.6,0.0  l-1.4,-1.4   a4,4,0 0 1 -1.4,0.6   l0.0,2.0     a0.5,0.5,0 0 1 -0.5,0.5 l-1.0,0.0               M23,14   l-1.0,0.0   a0.5,0.5,0 0 0  -0.5,0.5  l0.0,2.0     a4,4,0 0 0 -1.4,0.6   l-1.4,-1.4   a0.5,0.5,0 0 0 -0.6,0.0                     l-1.4,1.4   a0.5,0.5,0 0 0  -0.0,0.6  l1.4,1.4     a4,4,0 0 0 -0.6,1.4   l-2.0,0.0    a0.5,0.5,0 0 0 -0.5,0.5  l0.0,1.0              M15,22  l0.0,1.0     a0.5,0.5,0 0 0   0.5,0.5  l2.0, 0.0    a4,4,0 0 0  0.6,1.4   l-1.4,1.4    a0.5,0.5,0 0 0  0.0,0.6                     l1.4,1.4    a-0.5,0.5,0 0 0  0.6,0.0  l1.4,-1.4    a4,4,0 0 0  1.4,0.6   l0.0,2.0     a0.5,0.5,0 0 0  0.5,0.5 l 1.0,0.0     " />
  <path style="stroke-width:1;stroke:#FFFFFF;fill:none" d="             M12,12 a3,3,0 1 0 0,0.001  " />
  <path style="stroke-width:1;stroke:#FFFFFF;fill:none" d="             M9,4   l1.0,0.0    a0.5,0.5,0 0 1   0.5,0.5  l0.0,2.0     a4,4,0 0 1  1.4,0.6   l1.4,-1.4    a0.5,0.5,0 0 1 0.6,0.0                     l1.4,1.4    a0.5,0.5,0 0 1   0.0,0.6  l-1.4,1.4    a4,4,0 0 1  0.6,1.4   l2.0,0.0     a0.5,0.5,0 0 1 0.5,0.5  l0.0,1.0              M17,12  l0.0,1.0    a0.5,0.5,0 0 1  -0.5,0.5  l-2.0, 0.0   a4,4,0 0 1 -0.6,1.4   l1.4,1.4     a0.5,0.5,0 0 1  0.0,0.6                     l-1.4,1.4   a0.5,0.5,0 0 1  -0.6,0.0  l-1.4,-1.4   a4,4,0 0 1 -1.4,0.6   l0.0,2.0     a0.5,0.5,0 0 1 -0.5,0.5 l-1.0,0.0               M9,4   l-1.0,0.0   a0.5,0.5,0 0 0  -0.5,0.5  l0.0,2.0     a4,4,0 0 0 -1.4,0.6   l-1.4,-1.4   a0.5,0.5,0 0 0 -0.6,0.0                     l-1.4,1.4   a0.5,0.5,0 0 0  -0.0,0.6  l1.4,1.4     a4,4,0 0 0 -0.6,1.4   l-2.0,0.0    a0.5,0.5,0 0 0 -0.5,0.5  l0.0,1.0              M1,12  l0.0,1.0     a0.5,0.5,0 0 0   0.5,0.5  l2.0, 0.0    a4,4,0 0 0  0.6,1.4   l-1.4,1.4    a0.5,0.5,0 0 0  0.0,0.6                     l1.4,1.4    a-0.5,0.5,0 0 0  0.6,0.0  l1.4,-1.4    a4,4,0 0 0  1.4,0.6   l0.0,2.0     a0.5,0.5,0 0 0  0.5,0.5 l 1.0,0.0     " />
</svg>