<svg xmlns="http://www.w3.org/2000/svg" style="background:#B0B0B0" width="80" height="80" viewBox="0 0 24.00 24.00">
  <path style="stroke-width:2;stroke:#FFFFFF;fill:none" d="             M7,9 L16,5             M7,11 L16,15             M4,10 A2,2,0 0 0 8,10  A2,2,0 0 0 4,10             M16,4 A2,2,0 0 0 20,4  A2,2,0 0 0 16,4             M16,16 A2,2,0 0 0 20,16  A2,2,0 0 0 16,16             " />
  <path style="stroke-width:2;stroke:#FFFFFF;fill:none" d="             M12.5,21.5 a1,1,0 1 0 0,0.001             M17.5,21.5 a1,1,0 1 0 0,0.001             M22.5,21.5 a1,1,0 1 0 0,0.001 " />
</svg>