<svg xmlns="http://www.w3.org/2000/svg" style="background:#B0B0B0" width="80" height="80" viewBox="0 0 32.00 32.00">
  <path style="stroke-width:2;stroke:#0000FF;fill:none" d="         M2,2.5 l2,3 l2,5 l1,1 l3,0 l1,-1 l2,-3 l1,-3 l2,-3 l1,-1 l1,0 l1,1 l2,3 l2,6 l2,2 l3,0     " />
  <path style="stroke-width:2;stroke:#00FF00;fill:none" d="         M2,5 l2,3 l2,5 l1,1 l3,0 l1,-1 l2,-3 l1,-3 l2,-3 l1,-1 l1,0 l1,1 l2,3 l2,6 l2,2 l3,0     " />
  <path style="stroke-width:2;stroke:#C800E6;fill:none" d="         M2,7.5 l2,3 l2,5 l1,1 l3,0 l1,-1 l2,-3 l1,-3 l2,-3 l1,-1 l1,0 l1,1 l2,3 l2,6 l2,2 l3,0     " />
  <path style="stroke-width:2;stroke:#FFFFFF;fill:none" d="M6,22 l20,0    " />
  <path style="stroke-width:2;stroke:#FFFFFF;fill:#000000;fill-opacity:0.00" d="M12,21 m0,0 a1,1,0 1 0 0.001,0" />
  <path style="stroke-width:2;stroke:#FFFFFF;fill:none" d="M6,29 l20,0    " />
  <path style="stroke-width:2;stroke:#FFFFFF;fill:#000000;fill-opacity:0.00" d="M19,28 m0,0 a1,1,0 1 0 0.001,0 " />
</svg>