<svg xmlns="http://www.w3.org/2000/svg" style="background:#B0B0B0" width="80" height="80" viewBox="0 0 32.00 32.00">
  <path style="stroke-width:1;stroke:#EEEEEE;fill:none" d="         M4,4 l0,10 l24,0     " />
  <path style="stroke-width:1;stroke:#FFFFFF;fill:none" d="         M2,4 l26,0 l0,12 l-26,0 l0,-12.5         M4,2 l26,0 l0,12 l-2,0 m-24,-10 l0,-2.5     " />
  <path style="stroke-width:2;stroke:#00FF00;fill:none" d="M6,22 l20,0    " />
  <path style="stroke-width:2;stroke:#00FF00;fill:none" d="M12,21 m0,0 a1,1,0 1 0 0.001,0" />
  <path style="stroke-width:2;stroke:#00FF00;fill:none" d="M6,29 l20,0    " />
  <path style="stroke-width:2;stroke:#00FF00;fill:none" d="M19,28 m0,0 a1,1,0 1 0 0.001,0 " />
</svg>