<svg xmlns="http://www.w3.org/2000/svg" style="background:#B0B0B0" width="80" height="80" viewBox="0 0 24.00 24.00">
  <path style="stroke-width:1;stroke:#FFFFFF;fill:none" d="M1.5,22 l22,0                 M2,22 l0,-20                 M5,22 l0,-5 l2,0 l0,5                 M10,22 l0,-10 l2,0 l0,10                 M15,22 l0,-7 l2,0 l0,7                 M20,22 l0,-14 l2,0 l0,14                 M6,12 l5,-6 l5,2 l5,-5                 M18.75,3 l2,0 a0.5,0.5,0 0 1 0.5,0.5 l0,2              " />
</svg>