<svg xmlns="http://www.w3.org/2000/svg" style="background:#B0B0B0" width="80" height="80" viewBox="0 0 34.00 34.00">
  <path style="stroke-width:3;stroke:#FFFFFF;fill:#FFFFFF;fill-opacity:0.50" d="             M11,12.6 a7,7,0 1 1 12,0             M11,12.6 l2,3.3  a15,15,0 0 1 2,5  l2,8             M23,12.6 l-2,3.3 a15,15,0 0 0 -2,5 l-2,8         " />
  <path style="stroke-width:0.1;stroke:#FFFFFF;fill:#FFFFFF" d="M15.5,28.9 l1.5,5 l1.5,-5" />
  <path style="stroke-width:0.1;stroke:#FFFFFF;fill:#FFFFFF;fill-opacity:0.50" d="             M12,12.6 l5,15 l5,-15         " />
  <path style="stroke-width:3;stroke:#FFFFFF;fill:#000000;fill-opacity:0.00" d="M17,6.1 m0,0 a3,3,0 1 0 0.001,0 " />
  <path style="stroke-width:2;stroke:#E480F3;fill:#000000;fill-opacity:0.00" d="             M11,12.6 a7,7,0 1 1 12,0             M11,12.6 l2,3.3  a15,15,0 0 1 2,5  l2,8             M23,12.6 l-2,3.3 a15,15,0 0 0 -2,5 l-2,8         " />
  <path style="stroke-width:0.1;stroke:#E480F3;fill:#E480F3" d="M16,28.9 l1,4 l1,-4" />
  <path style="stroke-width:2;stroke:#E480F3;fill:#E480F3" d="M17,6.1 m0,0 a3,3,0 1 0 0.001,0 " />
</svg>