<svg xmlns="http://www.w3.org/2000/svg" style="background:#B0B0B0" width="80" height="80" viewBox="0 0 24.00 24.00">
  <path style="stroke-width:1;stroke:#E0E0E0;fill:none" d="             M0,4  a3,2,5 0,0 9,0 a3,2,5 0,-1 9,0 a3,2,5 0,0 9,0             M0,10  a3,2,5 0,0 9,0 a3,2,5 0,-1 9,0 a3,2,5 0,0 9,0             M0,16  a3,2,5 0,0 9,0 a3,2,5 0,-1 9,0 a3,2,5 0,0 9,0             M0,22  a3,2,5 0,0 9,0 a3,2,5 0,-1 9,0 a3,2,5 0,0 9,0         " />
  <path style="stroke-width:2;stroke:#FFFFFF;fill:none" d="             M0,4  l6,3 m2,1  l6,3 m2,1  l6,3 m2,1  l6,3 m2,1             M2,18  l4,-3 m2,-1.5 l4,-3 m2,-1.5          " />
</svg>